<?xml version="1.0" encoding="UTF-8" standalone="no"?><!DOCTYPE svg PUBLIC "-//W3C//DTD SVG 1.1//EN" "http://www.w3.org/Graphics/SVG/1.1/DTD/svg11.dtd"><svg width="100%" height="100%" viewBox="0 0 29446 18821" version="1.1" xmlns="http://www.w3.org/2000/svg" xmlns:xlink="http://www.w3.org/1999/xlink" xml:space="preserve" xmlns:serif="http://www.serif.com/" style="fill-rule:evenodd;clip-rule:evenodd;stroke-linecap:round;"><g id="Ebene-1"><g id="g3"><path id="path1" d="M4485.904,4100.433l11978.558,0c716.458,0 1689.013,-749.879 2978.179,-1748.279c1567.621,-1213.908 2045.4,-2088.054 2866.425,-1817.796c935.658,307.987 2002.95,2172.533 2002.95,2172.533l582.763,1311.721" style="fill:none;fill-rule:nonzero;stroke:#16181a;stroke-width:976.04px;"/><circle id="path2" cx="21873.333" cy="3484.863" r="1537.9"/></g><g id="g19"><g id="ultra"><path d="M6105.904,8408.75c0,385.471 -50.833,722.221 -152.55,1010.138c-98.904,285.538 -262.796,523.488 -491.7,713.821c-217.55,180.883 -471.842,312.933 -762.917,396.217c-291.075,83.279 -630.158,124.946 -1017.258,124.946c-395.608,0 -740.346,-44.046 -1034.237,-132.05c-293.838,-88.054 -541.129,-217.779 -741.7,-389.096c-228.888,-195.087 -394.2,-430.658 -495.938,-706.7c-98.908,-276.042 -148.388,-615.071 -148.388,-1017.258l0,-3180.225l839.254,0l0,3215.921c0,287.917 22.621,515.192 67.812,681.754c48.075,166.562 127.171,317.658 237.362,453.283c124.342,154.671 292.483,271.267 504.392,349.775c214.738,78.558 471.892,117.829 771.425,117.829c302.362,0 559.463,-38.092 771.425,-114.254c211.908,-78.508 381.458,-196.283 508.629,-353.35c110.192,-135.625 187.883,-290.312 233.125,-463.975c48.021,-176.112 72.05,-393.821 72.05,-653.212l0,-3233.767l839.183,0l0,3180.225l0.033,-0.017l-0.004,-0.004Zm5594.929,2134.446l-3992.725,0l0,-5314.671l839.254,0l0,4686.458l3153.471,0l0,628.213Zm4620.017,-4686.458l-2254.95,0l0,4686.458l-839.183,0l0,-4686.458l-2254.929,0l0,-628.196l5349.062,0l0,628.196Zm6069.583,4686.458l-1089.304,0l-2110.779,-2113.004l-1182.571,0l0,2113.004l-839.254,0l0,-5314.671l1767.467,0c381.458,0 699.375,21.425 953.662,64.237c254.342,40.471 483.175,114.2 686.633,221.304c228.888,121.371 406.892,274.846 534.062,460.45c129.983,183.212 194.983,416.387 194.983,699.6c0,383.092 -114.425,704.325 -343.317,963.7c-228.887,256.996 -543.942,450.904 -945.208,581.754l2373.596,2323.613l0.033,0.017l-0.004,-0.004Zm-1962.45,-3819.113c0,-152.292 -32.5,-286.738 -97.5,-403.367c-62.171,-118.975 -166.721,-218.904 -313.646,-299.808c-121.529,-69.008 -265.625,-116.596 -432.342,-142.742c-166.721,-28.592 -363.125,-42.863 -589.133,-42.863l-987.571,0l0,2005.971l847.708,0c265.625,0 497.292,-19.046 695.088,-57.133c197.812,-40.471 365.937,-114.2 504.392,-221.304c127.171,-99.929 220.433,-214.133 279.721,-342.658c62.171,-130.85 93.262,-296.217 93.262,-496.092l0.017,0l0.004,-0.004Zm7752.325,3819.113l-894.375,0l-618.821,-1481.233l-2729.6,0l-618.871,1481.233l-851.946,0l2297.308,-5314.671l1118.975,0l2297.308,5314.671l0.021,0Zm-1771.7,-2088.004l-1106.283,-2609.2l-1110.521,2609.2l2216.804,0Z" style="fill:#16181a;fill-rule:nonzero;"/></g><g id="schwimmen"><path d="M2583.229,13087.292c0,101.996 -30.433,202.742 -91.25,302.413c-59.304,99.6 -143.125,183.975 -251.404,253.142c-118.696,74.983 -257.429,133.629 -416.129,175.783c-157.275,42.204 -347.171,63.317 -569.654,63.317c-238.871,0 -453.992,-17.571 -645.346,-52.725c-189.879,-35.158 -383.454,-87.346 -580.783,-156.458l-0,-436.042l31.146,0c167.638,110.192 361.217,195.158 580.783,254.929c219.567,59.792 425.783,89.688 618.646,89.688c272.95,0 485.088,-40.471 636.388,-121.3c152.829,-80.888 229.217,-188.7 229.217,-323.508c0,-115.992 -36.354,-201.546 -109.046,-256.667c-71.233,-55.071 -180.225,-97.812 -327.1,-128.317c-111.267,-23.438 -232.204,-42.813 -362.742,-58.004c-129.062,-15.242 -266.267,-34.617 -411.667,-58.054c-293.733,-49.2 -511.771,-133.021 -654.183,-251.408c-140.954,-119.513 -211.425,-274.846 -211.425,-465.867c0,-219.183 117.188,-398.492 351.617,-537.971c234.375,-140.625 531.788,-210.938 892.308,-210.938c232.917,0 446.513,17.571 640.833,52.725c194.342,35.158 366.425,78.508 516.267,130.104l0,411.408l-31.146,0c-126.075,-84.408 -292.258,-154.133 -498.471,-209.254c-204.704,-56.196 -414.6,-84.358 -629.721,-84.358c-235.883,0 -425.779,38.679 -569.654,116.042c-142.413,77.363 -213.646,176.979 -213.646,298.888c0,108.992 35.642,194.55 106.825,256.667c71.233,62.117 196.562,109.529 376.075,142.363c94.95,16.442 229.929,36.354 405,59.792c175.017,23.438 323.404,47.467 445.033,72.1c246.25,51.546 431.7,129.496 556.321,233.783c124.617,104.325 186.908,250.279 186.908,437.779l0,-0.054l0,0.004Zm3266.65,557.292c-81.596,28.158 -155.763,54.529 -222.554,79.096c-65.258,24.633 -151.321,50.4 -258.092,77.363c-90.488,22.292 -189.183,41.008 -296.008,56.267c-105.312,16.442 -221.738,24.633 -349.342,24.633c-240.346,0 -459.15,-26.371 -656.458,-79.096c-195.8,-53.925 -366.425,-137.742 -511.771,-251.408c-142.412,-111.321 -253.679,-252.604 -333.821,-423.717c-80.071,-172.258 -120.121,-372.117 -120.121,-599.446c0,-215.658 38.575,-408.471 115.658,-578.454c77.154,-169.913 188.421,-313.471 333.821,-430.712c140.904,-113.663 310.762,-200.417 509.55,-260.138c200.296,-59.792 422.083,-89.688 665.367,-89.688c178.004,0 355.313,16.979 531.842,50.988c178.004,33.958 375.329,93.75 591.908,179.304l0,413.142l-33.367,0c-182.5,-120.712 -363.488,-208.612 -542.967,-263.733c-179.533,-55.071 -371.633,-82.621 -576.337,-82.621c-167.637,0 -318.958,21.7 -453.942,65.05c-133.525,42.204 -252.987,108.404 -358.279,198.679c-102.379,87.883 -182.45,199.217 -240.346,334.046c-56.371,133.575 -84.529,288.3 -84.529,464.133c0,183.975 31.146,342.221 93.421,474.671c63.804,132.429 145.4,240.225 244.792,323.454c103.838,86.754 224.775,151.196 362.742,193.421c139.429,41.008 286.304,61.529 440.592,61.529c212.133,0 410.921,-28.75 596.354,-86.146c185.433,-57.446 358.992,-143.558 520.729,-258.454l31.146,0l0,407.883l0.017,-0.05l-0.004,0.004Zm3157.604,189.879l-440.592,0l0,-1281.633l-1653.367,0l0,1281.633l-440.592,0l0,-2617.725l440.592,0l0,1026.683l1653.367,0l0,-1026.683l440.592,0l0,2617.725Zm4746.408,-2617.725l-861.163,2617.725l-496.2,0l-696.508,-2172.95l-680.938,2172.95l-485.087,0l-876.737,-2617.725l451.721,0l696.508,2176.425l685.383,-2176.425l447.258,0l692.05,2197.533l691.996,-2197.533l431.721,0l-0.004,0Zm1818.038,2617.725l-1308.438,0l0,-267.204l433.925,0l0,-2083.333l-433.925,0l0,-267.204l1308.438,0l0,267.204l-433.925,0l0,2083.333l433.925,0l0,267.204Zm3700.592,0l-440.608,0l0,-2255.592l-921.217,1534.775l-262.587,0l-914.6,-1534.775l0,2255.592l-411.667,0l0,-2617.725l600.85,0l883.404,1457.413l854.496,-1457.413l611.929,0l0,2617.725Zm3840.762,0l-440.608,0l0,-2255.592l-921.217,1534.775l-262.587,0l-914.6,-1534.775l0,2255.592l-411.667,0l0,-2617.725l600.85,0l883.404,1457.413l854.496,-1457.413l611.929,0l0,2617.725Zm3073.054,0l-2182.988,0l0,-2617.725l2182.988,0l0,309.408l-1742.396,0l0,717.292l1742.396,0l0,309.408l-1742.396,0l0,972.221l1742.396,0l0,309.408l0,-0.017l0,0.004Zm3226.562,0l-545.138,0l-1571.075,-2341.737l0,2341.737l-411.617,0l0,-2617.725l683.108,0l1433.054,2137.796l0,-2137.796l411.667,0l0,2617.725Z" style="fill:#1b96e3;fill-rule:nonzero;"/></g><g id="g1"><path id="oberste-linie" d="M2462.221,15265.4c1039.825,-434.029 2079.688,-434.029 3119.567,0c1039.825,434.029 2079.688,434.029 3119.567,0c1039.825,-434.029 2079.688,-434.029 3119.567,0c1039.825,434.029 2079.688,434.029 3119.567,0c1039.825,-434.029 2079.688,-434.029 3119.567,0c1039.825,434.029 2079.688,434.029 3119.567,0c1039.825,-434.029 2079.688,-434.029 3119.567,0c1039.825,434.029 2079.688,434.029 3119.567,0l-439.446,813.8l-24956.562,0l439.446,-813.8l0.033,0l-0.004,0Z" style="fill:#1b96e3;fill-rule:nonzero;"/><path id="mittlere-linie" d="M5988.679,16621.738c994.637,-434.029 1989.254,-434.029 2983.942,0c994.638,434.029 1989.254,434.029 2983.942,0c994.638,-434.029 1989.254,-434.029 2983.942,0c994.638,434.029 1989.254,434.029 2983.942,0c994.633,-434.029 1989.254,-434.029 2983.942,0c994.633,434.029 1989.254,434.029 2983.942,0l-439.446,813.8l-17903.629,0l439.446,-813.8l-0.021,0Z" style="fill:#9ed3f3;fill-rule:nonzero;"/></g></g><g><g id="TriFinishMark"><path d="M20894.456,16564.823c-40.752,-1.237 -86.547,7.77 -135.355,28.152c-181.519,76.015 -339.251,284.55 -363.616,470.338l-0.096,0c-3.69,28.152 -4.172,54.605 -1.606,79.051c-204.841,178.965 -352.522,436.211 -384.834,683.233c-0.948,7.111 -1.799,14.126 -2.473,21.141c-108.825,59.805 -196.3,190.522 -214.036,327.213c-21.988,167.586 66.916,295.833 206.254,286.072c70.526,-4.927 140.863,-43.884 197.922,-103.609c84.459,62.086 193.461,94.313 321.05,85.873c136.591,-9.003 276.122,-62.278 403.325,-147.2c60.287,58.103 148.244,90.045 253.652,82.757c239.622,-16.869 475.168,-227.776 506.741,-469.872c25.875,-198.115 -95.454,-335.461 -274.23,-350.615c1.606,-9.758 3.036,-19.534 4.268,-29.388c44.077,-337.549 -115.165,-560.206 -360.662,-608.728c10.705,-31.476 18.491,-63.322 22.566,-94.972c20.948,-158.969 -56.5,-255.447 -178.869,-259.43l-0,-0.015Zm97.638,477.256c187.972,62.086 303.696,252.993 267.678,527.782c0,0.385 -0.096,0.659 -0.193,1.044c-215.931,55.264 -396.969,253.844 -423.422,456.019c-9.484,72.71 1.895,139.145 30.047,194.216c-118.101,87.861 -250.712,144.265 -381.048,154.696c-99.899,8.059 -187.201,-12.423 -258.113,-54.878c47.671,-61.701 81.986,-138.872 92.711,-221.228c24.639,-188.438 -85.696,-313.553 -237.168,-281.707c-17.624,3.69 -35.167,9.392 -52.228,16.869c0.289,-2.184 0.562,-4.365 0.851,-6.533c30.529,-233.844 175.741,-475.842 373.278,-633.478c33.079,102.661 130.235,152.709 260.859,115.454c124.649,-35.633 248.066,-140.767 326.635,-268.255l0.112,0Z" style="fill:#1b96e3;fill-rule:nonzero;"/></g><g transform="matrix(2275.923733,0,0,2275.923733,7589.001201,18490.937054)"><path d="M0.076,-0l0,-0.686l0.227,0l0.098,0.352c0.004,0.012 0.008,0.027 0.012,0.045c0.004,0.017 0.008,0.035 0.012,0.052c0.004,0.017 0.007,0.032 0.01,0.045l0.008,0c0.002,-0.011 0.004,-0.024 0.007,-0.04c0.003,-0.016 0.007,-0.033 0.011,-0.051c0.004,-0.018 0.008,-0.035 0.013,-0.051l0.098,-0.351l0.223,0l0,0.686l-0.148,-0l0,-0.325c0,-0.03 0,-0.06 0.001,-0.09c0.001,-0.03 0.001,-0.057 0.002,-0.079c0.001,-0.023 0.001,-0.037 0.001,-0.044l-0.008,0c-0.001,0.008 -0.005,0.021 -0.01,0.041c-0.005,0.02 -0.01,0.04 -0.016,0.062c-0.006,0.022 -0.011,0.041 -0.015,0.057l-0.108,0.379l-0.13,-0l-0.108,-0.378c-0.004,-0.014 -0.008,-0.03 -0.013,-0.05c-0.005,-0.019 -0.01,-0.039 -0.014,-0.059c-0.005,-0.02 -0.009,-0.038 -0.013,-0.052l-0.008,0c0.001,0.018 0.001,0.039 0.002,0.064c0.001,0.025 0.001,0.051 0.002,0.077c0.001,0.026 0.001,0.05 0.001,0.072l0,0.325l-0.14,-0Z" style="fill:#1b96e3;fill-rule:nonzero;"/></g><g transform="matrix(2275.923733,0,0,2275.923733,9573.215523,18490.937054)"><path d="M0.373,0.012c-0.063,0 -0.116,-0.01 -0.161,-0.03c-0.045,-0.02 -0.079,-0.05 -0.103,-0.09c-0.024,-0.04 -0.036,-0.091 -0.036,-0.151l0,-0.427l0.15,0l0,0.424c0,0.049 0.013,0.087 0.039,0.113c0.026,0.026 0.063,0.04 0.112,0.04c0.049,0 0.086,-0.013 0.113,-0.04c0.027,-0.026 0.04,-0.064 0.04,-0.113l0,-0.424l0.15,0l0,0.427c0,0.06 -0.012,0.11 -0.036,0.151c-0.024,0.04 -0.059,0.071 -0.104,0.09c-0.045,0.02 -0.099,0.03 -0.162,0.03Zm-0.162,-0.767l0,-0.117l0.118,0l0,0.117l-0.118,0Zm0.207,0l0,-0.117l0.118,0l0,0.117l-0.118,0Z" style="fill:#1b96e3;fill-rule:nonzero;"/></g><g transform="matrix(2275.923733,0,0,2275.923733,11274.917753,18490.937054)"><path d="M0.076,-0l0,-0.686l0.138,0l0.276,0.371c0.004,0.005 0.009,0.011 0.015,0.019c0.006,0.008 0.011,0.016 0.017,0.024c0.005,0.008 0.009,0.015 0.011,0.019l0.005,-0c-0,-0.011 -0,-0.022 -0,-0.033l0,-0.4l0.142,0l0,0.686l-0.137,-0l-0.282,-0.379c-0.007,-0.009 -0.014,-0.02 -0.021,-0.031c-0.007,-0.012 -0.013,-0.02 -0.016,-0.026l-0.005,0c0,0.01 0,0.019 0,0.029l0,0.407l-0.142,-0Z" style="fill:#1b96e3;fill-rule:nonzero;"/></g><g transform="matrix(2275.923733,0,0,2275.923733,12990.868955,18490.937054)"><path d="M0.343,0.012c-0.04,0 -0.078,-0.004 -0.114,-0.012c-0.036,-0.008 -0.068,-0.021 -0.095,-0.038c-0.028,-0.018 -0.049,-0.04 -0.065,-0.067c-0.016,-0.027 -0.024,-0.06 -0.024,-0.098c0,-0.003 0,-0.007 0,-0.011c0,-0.004 0,-0.007 0.001,-0.009l0.148,0c-0,0.002 -0,0.004 -0.001,0.008c-0,0.003 -0,0.006 -0,0.009c0,0.022 0.006,0.04 0.018,0.054c0.012,0.015 0.029,0.026 0.052,0.033c0.022,0.007 0.049,0.011 0.079,0.011c0.019,0 0.036,-0.001 0.051,-0.003c0.015,-0.002 0.029,-0.005 0.04,-0.01c0.011,-0.004 0.021,-0.01 0.029,-0.016c0.008,-0.006 0.014,-0.013 0.017,-0.021c0.004,-0.008 0.006,-0.017 0.006,-0.027c0,-0.018 -0.006,-0.033 -0.018,-0.044c-0.012,-0.012 -0.028,-0.021 -0.048,-0.029c-0.02,-0.008 -0.043,-0.015 -0.068,-0.022c-0.025,-0.006 -0.051,-0.013 -0.078,-0.02c-0.027,-0.007 -0.053,-0.016 -0.078,-0.026c-0.025,-0.01 -0.048,-0.023 -0.068,-0.038c-0.02,-0.015 -0.036,-0.034 -0.048,-0.056c-0.012,-0.023 -0.018,-0.05 -0.018,-0.082c0,-0.034 0.007,-0.063 0.021,-0.088c0.014,-0.025 0.034,-0.045 0.06,-0.061c0.026,-0.016 0.056,-0.028 0.09,-0.036c0.034,-0.008 0.071,-0.012 0.111,-0.012c0.038,-0 0.073,0.004 0.106,0.012c0.033,0.008 0.063,0.02 0.088,0.037c0.025,0.017 0.045,0.038 0.06,0.063c0.014,0.025 0.022,0.056 0.022,0.091l0,0.012l-0.146,0l0,-0.009c0,-0.018 -0.005,-0.033 -0.016,-0.046c-0.01,-0.013 -0.025,-0.023 -0.045,-0.03c-0.019,-0.007 -0.042,-0.011 -0.069,-0.011c-0.028,0 -0.052,0.003 -0.071,0.008c-0.02,0.005 -0.035,0.013 -0.045,0.023c-0.01,0.01 -0.015,0.022 -0.015,0.037c0,0.016 0.006,0.029 0.018,0.04c0.012,0.011 0.028,0.02 0.048,0.027c0.02,0.007 0.043,0.014 0.068,0.02c0.025,0.006 0.051,0.013 0.078,0.02c0.027,0.007 0.053,0.016 0.078,0.026c0.025,0.01 0.048,0.022 0.068,0.037c0.02,0.015 0.036,0.034 0.048,0.055c0.012,0.022 0.018,0.048 0.018,0.079c0,0.052 -0.013,0.095 -0.038,0.127c-0.025,0.032 -0.06,0.056 -0.104,0.07c-0.044,0.015 -0.094,0.022 -0.151,0.022Z" style="fill:#1b96e3;fill-rule:nonzero;"/></g><g transform="matrix(2275.923733,0,0,2275.923733,14536.124209,18490.937054)"><path d="M0.245,-0l0,-0.561l-0.221,0l0,-0.126l0.591,0l0,0.126l-0.221,0l0,0.561l-0.15,-0Z" style="fill:#1b96e3;fill-rule:nonzero;"/></g><g transform="matrix(2275.923733,0,0,2275.923733,15995.885634,18490.937054)"><path d="M0.076,-0l0,-0.686l0.548,0l0,0.123l-0.398,0l0,0.153l0.352,0l0,0.121l-0.352,0l0,0.167l0.404,0l0,0.123l-0.554,-0Z" style="fill:#1b96e3;fill-rule:nonzero;"/></g><g transform="matrix(2275.923733,0,0,2275.923733,17550.046496,18490.937054)"><path d="M0.076,-0l0,-0.686l0.376,0c0.051,0 0.093,0.009 0.127,0.027c0.034,0.018 0.059,0.043 0.076,0.076c0.017,0.032 0.025,0.07 0.025,0.112c0,0.045 -0.01,0.084 -0.03,0.118c-0.02,0.034 -0.049,0.061 -0.087,0.079l0.14,0.275l-0.165,-0l-0.121,-0.25l-0.19,0l0,0.25l-0.15,-0Zm0.15,-0.368l0.207,0c0.03,0 0.053,-0.009 0.07,-0.027c0.017,-0.018 0.025,-0.043 0.025,-0.074c0,-0.02 -0.004,-0.037 -0.011,-0.051c-0.007,-0.014 -0.018,-0.025 -0.032,-0.033c-0.014,-0.008 -0.031,-0.011 -0.052,-0.011l-0.207,0l0,0.197Z" style="fill:#1b96e3;fill-rule:nonzero;"/></g><g transform="matrix(2275.923733,0,0,2275.923733,19212.066751,18490.937054)"></g></g></g></svg>